<?xml version="1.0" encoding="UTF-8"?>
<svg width="100pt" height="100pt" version="1.1" viewBox="0 0 100 100" xmlns="http://www.w3.org/2000/svg">
 <path d="m46.406 32.629c1.3555 6.3555 6.9922 11.121 13.75 11.121 7.7656 0 14.062-6.2969 14.062-14.062s-6.2969-14.062-14.062-14.062c-3.4844 0-6.6523 1.2852-9.1094 3.3867l0.003906-0.007813s-0.066406 0.0625-0.29688 0.25c-0.34766 0.28516-1.0781 0.86328-2.5391 1.9727-1.9922 1.5078-5.9062 1.2344-8.1367 0.91797-0.96484-0.13672-1.8281 0.60156-1.8555 1.5781-0.097656 3.0078 0.75 8.6094 8.1836 8.9062zm13.75 9.5586c-5.8789 0-10.812-4.0859-12.137-9.5664 5.5195-0.30469 10.105-4.0781 11.609-9.1836 1.4844 3.625 4.8477 7.8516 12.309 10.395-1.7188 4.8594-6.3438 8.3555-11.781 8.3555z"/>
 <path d="m91.402 16.137c0-1.8281-1.0625-3.4883-2.7227-4.2539l-2.8672-1.3242c-0.51562-0.23828-0.86328-0.73828-0.90234-1.3086l-0.23438-3.2812c-0.085937-1.1602-1.0547-2.0625-2.2227-2.0625-1.0977 0-2.0312 0.80078-2.1992 1.8867l-0.89453 5.7695c-0.25391 1.6484-0.15625 3.3281 0.28906 4.9336l0.30469 1.0977c0.23828 0.85938 0.37891 1.7383 0.41797 2.6289l0.10156 2.4336h-0.003906v13.234c0.050781 2.2148-0.625 4.375-1.8828 6.1992-2.0352 2.9414-5.3867 4.6992-8.9648 4.7852h-14.309c-3.3203 0-6.3477 1.2422-8.6602 3.2773v-0.023438l-9.543 8.3477c-0.84766 0.74219-2.1758 0.37109-2.5195-0.70312l-3.9531-12.461h-0.011719l-1.4375-4.5742c-0.8125-2.5898-2.5547-4.6875-4.7891-5.9922l9.875-23c0.015624-0.035156 0.011718-0.074219 0.023437-0.10938 0.015625-0.058594 0.035156-0.11719 0.035156-0.17578 0-0.050782-0.011719-0.097657-0.019531-0.14844s-0.011719-0.10156-0.027344-0.14844c-0.019531-0.054687-0.058594-0.10156-0.089844-0.15234-0.019531-0.03125-0.03125-0.070313-0.058593-0.097657-0.003907-0.003906-0.011719-0.011718-0.015625-0.015624-0.24609-0.26953-3.6406-3.8477-9.4844-3.8477-1.5586 0-3.2734 0.73828-4.9297 1.4531-1.5664 0.67578-3.1875 1.3711-4.5195 1.3711-3.418 0-6.1055-1.9297-6.1328-1.9492-0.23828-0.17188-0.55078-0.19922-0.81641-0.066406-0.26172 0.13281-0.42578 0.39844-0.42578 0.69531v13c0 0.25 0.11719 0.48437 0.32031 0.62891 0.125 0.09375 3.1094 2.2539 7.0547 2.2539 1.6797 0 3.2305-0.77344 4.7305-1.5195 1.3516-0.67188 2.625-1.3086 3.8398-1.3086 1.8438 0 3.3398 0.92578 3.9844 1.3984l-4.7422 11.051c-1.2344-0.49609-2.5703-0.76953-3.9609-0.76953-1.0859 0-1.8711 1.0312-1.582 2.0781l2.7461 9.9453h-0.011719l6.3359 23.051c1.1914 4.332 5.7812 6.7695 10.035 5.3281l6.3398-2.1445c0.49609 2.9297 1.2422 5.8203 2.2461 8.6289l0.16406 0.46484v12.328c0 0.86328 0.69922 1.5625 1.5625 1.5625h31.25c0.86328 0 1.5625-0.69922 1.5625-1.5625v-20.883c0.21094-2.6523 0.85547-5.2695 2.0898-7.6172l8.2383-15.711c1.3047-2.4922 1.3906-5.1797 1.3906-8.0977v-18.004zm-67.645 3.9141c-1.5781 0-3.082 0.74609-4.5352 1.4688-1.3984 0.69531-2.7227 1.3555-4.0352 1.3555-2.7344 0-5-1.2344-5.8125-1.7383v-11.203c1.25 0.65625 3.3438 1.5 5.8125 1.5 1.6562 0 3.4258-0.76172 5.1367-1.5 1.5117-0.65234 3.0742-1.3242 4.3125-1.3242 4.2148 0 7.043 2.1641 7.9883 3.0156l-4.2578 9.9141c-0.91016-0.61719-2.5625-1.4883-4.6094-1.4883zm-4.7812 14.832c0.023438-0.03125 0.046876-0.03125 0.0625-0.03125 1.1758 0 2.3047 0.22656 3.3438 0.63672 0.48828 0.19141 0.95703 0.42188 1.4023 0.69531 1.8242 1.1172 3.2344 2.8672 3.9141 5.0234l0.79688 2.543h-7.1055l-2.4297-8.8008c-0.003907-0.011719-0.007813-0.035157 0.015624-0.066407zm33.367 17.461c-0.86328 0-1.5625-0.69922-1.5625-1.5625s0.69922-1.5625 1.5625-1.5625 1.5625 0.69922 1.5625 1.5625-0.69922 1.5625-1.5625 1.5625zm3.125 2.3438c-0.86328 0-1.5625-0.69922-1.5625-1.5625s0.69922-1.5625 1.5625-1.5625 1.5625 0.69922 1.5625 1.5625-0.69922 1.5625-1.5625 1.5625zm4.6875 0.78125c-0.86328 0-1.5625-0.69922-1.5625-1.5625s0.69922-1.5625 1.5625-1.5625 1.5625 0.69922 1.5625 1.5625-0.69922 1.5625-1.5625 1.5625zm4.6875-0.78125c-0.86328 0-1.5625-0.69922-1.5625-1.5625s0.69922-1.5625 1.5625-1.5625 1.5625 0.69922 1.5625 1.5625-0.69922 1.5625-1.5625 1.5625zm1.5625-3.9062c0-0.41797 0.16406-0.79297 0.43359-1.0742 0.28516-0.30078 0.68359-0.48828 1.1289-0.48828 0.86328 0 1.5625 0.69922 1.5625 1.5625s-0.69922 1.5625-1.5625 1.5625-1.5625-0.69922-1.5625-1.5625zm16.047-45.312c0.34766 0 0.63672 0.26953 0.66406 0.61719l0.23437 3.2812c0.082032 1.1367 0.77344 2.1367 1.8086 2.6133l2.8672 1.3242c1.1016 0.50781 1.8164 1.6211 1.8164 2.8359v4.9531h-7.875l-0.039062-0.94141c-0.042969-1.0078-0.20313-2.0078-0.47266-2.9805l-0.30469-1.0977c-0.39062-1.4023-0.47266-2.8398-0.25-4.2773l0.89453-5.7656c0.046875-0.32422 0.32422-0.5625 0.65625-0.5625z"/>
</svg>
